:SAMPLES-PER-SECOND 30
:FULLY-SPECIFIED
:DEGREES
561
root  62.3715 35.3266 78.208 4.18044 49.0393 -3.25731
LeftUpLeg  -13.499 12.3748 0.249511
LeftLeg  11.0983 5.20649 0.675492
LeftFoot  3.10296 -0.00784422 0.289605
LeftToes  -11.8424 1.61378e-006 8.80029e-008
Spine  3.70001 1.72413 -5.22867
Spine1  7.16689 3.56546 -9.76618
RightShoulder  -0.00283174 5.12211 -2.09161
RightArm  -64.5861 19.174 13.0005
RightForeArm  29.8365 52.5531 13.3501
RightHand  0.589895 -5.53211 -11.7799
LeftShoulder1  0.0987451 -2.79196 -4.75608
LeftArm  -29.2395 8.47974 -59.8626
LeftForeArm  30.144 -19.4316 -3.55797
LeftHand  0.0898491 1.73042 5.32933
HEad  -3.98317 -37.5784 1.3903
RightUpLeg  -20.7727 -15.7328 -6.36929
RightLeg  33.233 0.930972 0.51528
RightFoot  3.23509 0.00838311 0.0806695
RightToes  -37.2086 -0.196577 -0.298817
562
root  62.4729 35.3275 78.6877 4.73717 50.5545 -3.20651
LeftUpLeg  -13.5095 11.9748 0.644858
LeftLeg  11.0195 4.26998 0.548058
LeftFoot  3.04194 -0.00422436 0.229927
LeftToes  -12.6406 1.61378e-006 8.80029e-008
Spine  3.71259 1.72686 -5.29203
Spine1  7.21849 3.53624 -9.8454
RightShoulder  -0.00216891 5.02954 -2.60837
RightArm  -66.1903 18.2761 11.1382
RightForeArm  29.4668 50.7159 12.48
RightHand  0.579393 -5.43287 -11.7816
LeftShoulder1  0.102992 -2.98027 -4.60338
LeftArm  -29.4519 8.6102 -59.2889
LeftForeArm  30.4374 -19.2611 -3.52403
LeftHand  0.089804 1.72815 5.39051
HEad  -4.32745 -38.8538 1.72461
RightUpLeg  -20.2898 -12.8554 -7.56376
RightLeg  24.3736 4.25067 1.59984
RightFoot  6.10583 -0.00667437 0.502634
RightToes  -38.8028 -0.208991 -0.30826
563
root  62.559 35.3112 79.1814 5.57854 52.0022 -2.7433
LeftUpLeg  -13.4403 11.2227 0.897355
LeftLeg  10.8463 3.75086 0.469887
LeftFoot  3.07861 -0.00209273 0.202761
LeftToes  -13.6241 1.61378e-006 8.80029e-008
Spine  3.73298 1.77655 -5.40385
Spine1  7.27906 3.60973 -10.0133
RightShoulder  -0.00131485 4.8828 -3.10863
RightArm  -67.6128 17.4884 9.27784
RightForeArm  29.2445 48.8794 11.6788
RightHand  0.559634 -5.38055 -11.4836
LeftShoulder1  0.106399 -3.16838 -4.55111
LeftArm  -29.8837 8.80368 -58.5889
LeftForeArm  30.6622 -18.9667 -3.46575
LeftHand  0.0915293 1.78244 5.56322
HEad  -4.44288 -40.2132 1.75033
RightUpLeg  -20.0404 -9.90436 -9.03524
RightLeg  17.5188 8.15863 2.00266
RightFoot  9.63878 -0.0890668 1.43379
RightToes  -39.1722 -0.211905 -0.310399
564
root  62.6263 35.2931 79.7021 6.49484 53.5481 -2.13791
LeftUpLeg  -13.3746 10.5976 1.18079
LeftLeg  10.7196 2.93067 0.360405
LeftFoot  3.1836 0.00127423 0.162884
LeftToes  -14.9398 1.61378e-006 8.80029e-008
Spine  3.76517 1.82738 -5.51306
Spine1  7.35002 3.70482 -10.2035
RightShoulder  -0.000345476 4.83526 -3.55377
RightArm  -68.7988 16.6297 7.42581
RightForeArm  29.3943 46.7933 10.8399
RightHand  0.542004 -5.29953 -11.2871
LeftShoulder1  0.10753 -3.27016 -4.4629
LeftArm  -30.578 9.04235 -57.9049
LeftForeArm  30.8394 -18.5946 -3.39244
LeftHand  0.0909381 1.82152 5.60314
HEad  -4.38993 -41.4427 1.66441
RightUpLeg  -20.0854 -7.746 -10.202
RightLeg  12.7335 12.5254 1.98233
RightFoot  14.1643 -0.346662 3.1671
RightToes  -38.5006 -0.215739 -0.313162
565
root  62.6876 35.2867 80.2588 7.14478 55.22 -1.76349
LeftUpLeg  -13.2275 10.23 1.69677
LeftLeg  10.5571 1.75096 0.209872
LeftFoot  3.33514 0.00628278 0.101089
LeftToes  -16.3032 1.61378e-006 8.80029e-008
Spine  3.8147 1.90171 -5.50604
Spine1  7.4295 3.8775 -10.2319
RightShoulder  0.000677808 4.9559 -3.86704
RightArm  -69.5555 15.5928 5.3613
RightForeArm  29.3045 44.314 9.92683
RightHand  0.548964 -5.45074 -11.1103
LeftShoulder1  0.106182 -3.38677 -4.29756
LeftArm  -31.5142 9.49709 -57.4144
LeftForeArm  31.4251 -18.2239 -3.31949
LeftHand  0.0944026 1.72321 5.86006
HEad  -4.4162 -42.6157 1.49041
RightUpLeg  -20.3766 -7.65948 -10.3626
RightLeg  10.3377 18.0399 2.07651
RightFoot  17.1935 -0.785244 5.56803
RightToes  -38.9692 -0.220303 -0.316432
566
root  62.7349 35.2694 80.8789 7.74806 57.0631 -1.31755
LeftUpLeg  -12.9979 9.87443 2.33649
LeftLeg  10.4042 0.400844 0.0460444
LeftFoot  3.52917 0.0122794 0.0246368
LeftToes  -17.9163 1.61378e-006 8.80029e-008
Spine  3.83977 1.9143 -5.42615
Spine1  7.46055 3.94158 -10.1522
RightShoulder  0.00193608 4.84208 -4.31135
RightArm  -69.9508 15.1637 3.64952
RightForeArm  29.7749 41.369 8.94085
RightHand  0.526673 -5.37686 -10.7976
LeftShoulder1  0.100092 -3.49359 -4.15337
LeftArm  -32.3604 10.2751 -56.9178
LeftForeArm  31.6922 -17.8749 -3.25126
LeftHand  0.0967275 1.68764 6.06654
HEad  -4.12704 -43.7191 0.802289
RightUpLeg  -20.5727 -7.886 -10.1272
RightLeg  10.5507 21.1811 2.50141
RightFoot  15.8067 -0.797276 6.11574
RightToes  -39.4458 -0.222895 -0.318277
567
root  62.7635 35.2342 81.5613 8.62086 59.2545 -0.434647
LeftUpLeg  -12.7008 9.0914 2.96628
LeftLeg  10.2061 -0.928744 -0.107391
LeftFoot  3.82134 0.0186429 -0.0597129
LeftToes  -19.7247 1.61378e-006 8.80029e-008
Spine  3.88621 1.81193 -5.35289
Spine1  7.5494 3.78158 -10.0862
RightShoulder  0.00331163 4.7409 -4.78384
RightArm  -70.1123 14.8541 2.02722
RightForeArm  30.5454 38.3048 8.00845
RightHand  0.487229 -5.43485 -9.85623
LeftShoulder1  0.0927745 -3.57587 -4.03235
LeftArm  -32.9207 11.1251 -56.3264
LeftForeArm  31.9929 -17.4761 -3.17365
LeftHand  0.096648 1.68754 6.15992
HEad  -3.47652 -44.811 -0.067282
RightUpLeg  -20.2455 -7.02333 -10.2507
RightLeg  12.397 18.618 2.80895
RightFoot  12.7221 -0.440871 4.33049
RightToes  -40.2915 -0.220816 -0.316763
568
root  62.7834 35.2034 82.2656 9.60715 61.5351 0.6091
LeftUpLeg  -12.3071 7.73542 3.66305
LeftLeg  9.75741 -1.68836 -0.180807
LeftFoot  4.38752 0.0234932 -0.125637
LeftToes  -21.7227 1.61378e-006 8.80029e-008
Spine  3.93044 1.73162 -5.2253
Spine1  7.62104 3.6751 -9.9448
RightShoulder  0.00474709 4.69016 -5.1879
RightArm  -70.2057 14.5428 0.361631
RightForeArm  30.7865 34.6882 7.00787
RightHand  0.445027 -5.53196 -8.81121
LeftShoulder1  0.0834839 -3.69734 -3.97913
LeftArm  -33.3225 11.9368 -55.7433
LeftForeArm  32.5788 -16.993 -3.07995
LeftHand  0.0934597 1.63923 6.12992
HEad  -2.76856 -45.9815 -0.945261
RightUpLeg  -19.2712 -6.88589 -10.0216
RightLeg  13.168 15.8727 2.62192
RightFoot  9.68306 -0.206406 2.81381
RightToes  -38.6715 -0.207958 -0.307495
569
root  62.7624 35.2353 82.9845 8.87585 63.4844 -0.278763
LeftUpLeg  -11.8865 6.73513 5.30129
LeftLeg  9.12078 -2.3355 -0.223363
LeftFoot  5.16391 0.0291131 -0.211507
LeftToes  -23.5007 1.61378e-006 8.80029e-008
Spine  3.99009 1.87971 -4.70459
Spine1  7.65909 4.05813 -9.15699
RightShoulder  0.00622596 4.68903 -5.53191
RightArm  -70.4188 14.0634 -1.17404
RightForeArm  30.8687 30.2353 5.89323
RightHand  0.416081 -5.83092 -7.77744
LeftShoulder1  0.0653919 -3.70041 -3.92069
LeftArm  -34.2121 12.5189 -55.74
LeftForeArm  33.6157 -16.4206 -2.96927
LeftHand  0.0885091 1.51865 6.27202
HEad  -2.48353 -47.0924 -1.50252
RightUpLeg  -17.6123 -5.95327 -8.73209
RightLeg  11.7251 12.8366 1.80207
RightFoot  8.82847 -0.129017 2.04857
RightToes  -37.9421 -0.202256 -0.303204
570
root  62.6999 35.3117 83.6907 7.81606 65.1121 -1.80641
LeftUpLeg  -11.7735 5.75779 7.09422
LeftLeg  8.33895 -2.53121 -0.207092
LeftFoot  6.26679 0.0331763 -0.284065
LeftToes  -24.8025 1.61378e-006 8.80029e-008
Spine  4.00382 2.07147 -4.08492
Spine1  7.6219 4.52179 -8.19648
RightShoulder  0.00920503 4.8245 -6.08221
RightArm  -71.1133 13.1902 -2.09153
RightForeArm  31.0335 26.3581 5.00512
RightHand  0.342721 -6.32279 -5.82297
LeftShoulder1  0.0419122 -3.60948 -3.75424
LeftArm  -35.3111 13.191 -56.1816
LeftForeArm  34.4514 -16.0044 -2.88913
LeftHand  0.0837887 1.43084 6.30186
HEad  -2.75514 -47.9898 -1.58064
RightUpLeg  -16.1767 -7.07933 -6.84868
RightLeg  9.67778 12.3516 1.29084
RightFoot  8.64476 -0.115134 1.90058
RightToes  -36.6997 -0.192671 -0.295731
571
root  62.5915 35.4006 84.3782 6.82428 66.3907 -3.45125
LeftUpLeg  -11.9639 5.04065 8.81052
LeftLeg  7.60812 -2.50255 -0.172583
LeftFoot  7.55817 0.0356025 -0.344959
LeftToes  -25.9808 1.61378e-006 8.80029e-008
Spine  3.99711 2.31221 -3.39044
Spine1  7.52568 5.12032 -7.16699
RightShoulder  0.0140986 4.95845 -6.41854
RightArm  -72.5765 12.6735 -3.29818
RightForeArm  31.0028 22.1534 4.1093
RightHand  0.256493 -6.63082 -4.05148
LeftShoulder1  0.0189592 -3.52808 -3.53688
LeftArm  -36.5623 14.1183 -57.0595
LeftForeArm  35.0258 -15.8366 -2.8567
LeftHand  0.0837068 1.34915 6.37227
HEad  -2.61856 -48.8873 -1.82084
RightUpLeg  -15.605 -9.70794 -4.74136
RightLeg  8.55875 13.8886 1.17779
RightFoot  8.32085 -0.120943 2.03991
RightToes  -34.607 -0.176898 -0.282676
572
root  62.4587 35.4513 85.0405 6.82004 67.5431 -4.10809
LeftUpLeg  -12.4711 4.52893 9.98748
LeftLeg  7.17981 -2.1252 -0.130706
LeftFoot  8.809 0.03376 -0.356186
LeftToes  -26.9613 1.61378e-006 8.80029e-008
Spine  4.03434 2.55655 -2.73006
Spine1  7.43957 5.77792 -6.34079
RightShoulder  0.0190127 5.23776 -6.83896
RightArm  -74.3515 11.6424 -4.33609
RightForeArm  30.9522 20.2803 3.72854
RightHand  0.14011 -7.34849 -1.80999
LeftShoulder1  0.0108051 -3.44271 -3.32401
LeftArm  -37.3777 15.1822 -58.1406
LeftForeArm  35.1381 -16.2116 -2.92806
LeftHand  0.0811966 1.30703 6.23207
HEad  -3.50371 -49.2203 -1.37321
RightUpLeg  -15.4648 -11.8639 -3.11021
RightLeg  7.87359 15.0455 1.095
RightFoot  7.73574 -0.112609 2.04282
RightToes  -32.9933 -0.165067 -0.272222
573
root  62.3012 35.4977 85.6512 7.16692 68.582 -4.43706
LeftUpLeg  -13.017 4.37836 10.8167
LeftLeg  6.50114 -1.1372 -0.0567487
LeftFoot  10.5156 0.023332 -0.25355
LeftToes  -28.289 1.61378e-006 8.80029e-008
Spine  4.06449 2.75091 -2.14722
Spine1  7.3945 6.27971 -5.5503
RightShoulder  0.0221562 5.3337 -7.39396
RightArm  -76.9003 10.5995 -4.83657
RightForeArm  29.3715 19.1878 3.51179
RightHand  -0.0944227 -8.59286 1.62555
LeftShoulder1  0.00708003 -3.42362 -3.30861
LeftArm  -37.4179 16.2386 -59.0398
LeftForeArm  34.9148 -16.8281 -3.04636
LeftHand  0.0756226 1.3322 5.88877
HEad  -3.93803 -49.8603 -1.19403
RightUpLeg  -15.4232 -14.4061 -1.52071
RightLeg  6.88131 16.6552 0.923813
RightFoot  7.41375 -0.115601 2.16151
RightToes  -31.2274 -0.152463 -0.260405
574
root  62.1241 35.5457 86.199 7.84837 69.2875 -4.35414
LeftUpLeg  -13.3632 4.70555 11.2437
LeftLeg  5.44627 0.462213 0.013612
LeftFoot  12.618 -0.00406466 0.0367554
LeftToes  -29.8129 1.61378e-006 8.80029e-008
Spine  4.12628 2.94754 -1.6364
Spine1  7.4467 6.74079 -4.87579
RightShoulder  0.0191349 6.04341 -7.90124
RightArm  -79.8517 8.72874 -5.16772
RightForeArm  24.4028 18.7329 3.42396
RightHand  -0.434397 -9.65712 5.50523
LeftShoulder1  0.00448828 -3.28938 -3.53731
LeftArm  -37.2856 16.8949 -59.6803
LeftForeArm  34.5121 -17.0187 -3.0834
LeftHand  0.0661291 1.32618 5.3113
HEad  -3.73809 -50.1808 -1.47789
RightUpLeg  -15.3669 -15.5737 -0.306002
RightLeg  5.65848 17.2432 0.592315
RightFoot  7.4177 -0.11957 2.22176
RightToes  -29.7229 -0.142018 -0.250036
575
root  61.9554 35.5753 86.6856 8.73337 69.8344 -3.95659
LeftUpLeg  -13.9837 5.74314 11.2345
LeftLeg  5.13237 2.14607 0.053742
LeftFoot  14.1974 -0.0547145 0.439344
LeftToes  -30.4596 1.61378e-006 8.80029e-008
Spine  4.21826 3.15097 -1.02368
Spine1  7.59286 7.1621 -4.149
RightShoulder  0.0103179 6.96179 -8.13534
RightArm  -82.7822 6.95177 -5.98185
RightForeArm  22.3983 18.5732 3.3929
RightHand  -0.548308 -9.05099 7.2839
LeftShoulder1  0.00319433 -3.07551 -4.09715
LeftArm  -37.3075 17.1424 -60.2445
LeftForeArm  34.2246 -16.7117 -3.02459
LeftHand  0.0606663 1.22484 4.9575
HEad  -3.87094 -51.0943 -1.59762
RightUpLeg  -15.6372 -16.6275 0.753886
RightLeg  5.19198 17.7361 0.466562
RightFoot  7.13252 -0.117227 2.1827
RightToes  -28.0309 -0.130599 -0.23805
